<svg width="19" height="18" viewBox="0 0 19 18" fill="none" xmlns="http://www.w3.org/2000/svg">
<path d="M9.216 18C12.0465 18 14.6673 16.7445 16.4052 14.6304C16.4547 14.5705 16.4917 14.5012 16.5139 14.4267C16.536 14.3522 16.543 14.274 16.5344 14.1967C16.5257 14.1195 16.5016 14.0448 16.4635 13.977C16.4254 13.9093 16.374 13.8499 16.3125 13.8024C16.1872 13.7042 16.0286 13.6587 15.8703 13.6755C15.7121 13.6923 15.5666 13.7701 15.4647 13.8924C14.7048 14.8129 13.75 15.5532 12.6692 16.06C11.5885 16.5667 10.4087 16.8273 9.2151 16.8228C4.7916 16.8228 1.2051 13.32 1.2051 9C1.2051 4.68 4.7916 1.1772 9.2151 1.1772C10.4259 1.17257 11.6223 1.44063 12.7154 1.96147C13.8085 2.48232 14.7703 3.2426 15.5295 4.1859C15.6297 4.30946 15.774 4.38918 15.9319 4.40816C16.0898 4.42715 16.2489 4.38391 16.3755 4.2876C16.4376 4.24092 16.4896 4.18223 16.5286 4.11503C16.5675 4.04783 16.5926 3.97349 16.6022 3.89642C16.6119 3.81935 16.606 3.74113 16.5848 3.6664C16.5636 3.59167 16.5276 3.52196 16.479 3.4614C14.7438 1.2924 12.0879 0 9.216 0C4.1247 0 0 4.0293 0 9C0 13.9707 4.1256 18 9.216 18ZM15.3882 11.556L17.8236 9.1197C18.0594 8.8848 18.0639 8.5077 17.8344 8.2773L15.4548 5.8986C15.3419 5.78811 15.1897 5.72699 15.0317 5.72867C14.8738 5.73036 14.7229 5.79472 14.6124 5.9076C14.5563 5.96229 14.5116 6.02749 14.4807 6.09949C14.4498 6.17149 14.4335 6.24887 14.4326 6.3272C14.4317 6.40553 14.4462 6.48327 14.4753 6.55597C14.5045 6.62867 14.5477 6.69491 14.6025 6.7509L15.9948 8.1432H6.7158C6.63756 8.14225 6.55989 8.15672 6.48724 8.18579C6.41459 8.21485 6.34838 8.25794 6.29238 8.3126C6.23639 8.36726 6.19171 8.43241 6.1609 8.50434C6.13008 8.57627 6.11374 8.65356 6.1128 8.7318C6.1128 9.0576 6.3828 9.3213 6.7158 9.3213H15.9579L14.5557 10.7235C14.4427 10.8339 14.3782 10.9847 14.3763 11.1427C14.3745 11.3006 14.4354 11.4529 14.5458 11.5659C14.6588 11.6763 14.8111 11.7372 14.9691 11.7354C15.127 11.7335 15.2778 11.669 15.3882 11.556Z" fill="black"/>
</svg>
